<svg id="Layer_1" enable-background="new 0 0 100 100" viewBox="0 0 100 100" xmlns="http://www.w3.org/2000/svg"><path clip-rule="evenodd" d="m26.3323708 2.5007355h47.3352699c2.1967545 0 4.0632782.8788521 5.4915085 2.3063281 1.427475 1.4274764 2.3063202 3.4043288 2.3063202 5.491509v79.403595c0 2.1967545-.8788528 4.0632782-2.3063278 5.4915085-1.427475 1.4274634-3.2947541 2.3063239-5.4915085 2.3063239l-47.3352681-.0007324c-2.0864277 0-4.0632801-.8788605-5.4915085-2.3063278-1.4274769-1.427475-2.3063278-3.2947617-2.3063278-5.4915161l.0007343-79.4035873c0-2.0864267.8788528-4.0632801 2.3063278-5.491509 1.427477-1.4274753 3.294756-2.3063274 5.4907571-2.3063274zm17.4622039 8.8958376c-1.3179016 0-2.5262299-1.0980005-2.5262299-2.4159021s1.0979996-2.5262299 2.5262299-2.5262299h12.4104919c1.3179016 0 2.5262299 1.098001 2.5262299 2.5262299 0 1.3179016-1.0979996 2.4159021-2.5262299 2.4159021zm2.8557053 81.4896421c-1.3179016 0-2.415905-1.0980072-2.415905-2.4159088s1.0980034-2.5262299 2.415905-2.5262299h6.5895081c1.3179016 0 2.5262299 1.0980072 2.5262299 2.5262299 0 1.427475-1.0979996 2.4159088-2.5262299 2.4159088zm-19.3298569-78.633563h45.2473412c1.3179016 0 2.5262299 1.0980005 2.5262299 2.5262289v64.906662c0 1.3179092-1.0980072 2.5262299-2.5262299 2.5262299l-45.2473412-.0007324c-1.3179016 0-2.4159012-1.0979996-2.4159012-2.5262299v-64.906664c0-1.4274769 1.0979996-2.5254774 2.4159012-2.5254774z" fill-rule="evenodd"/></svg>