<svg id="svg11" clip-rule="evenodd" fill-rule="evenodd" stroke-linejoin="round" stroke-miterlimit="2" viewBox="0 0 64 64" xmlns="http://www.w3.org/2000/svg" xmlns:cc="http://creativecommons.org/ns#" xmlns:dc="http://purl.org/dc/elements/1.1/" xmlns:inkscape="http://www.inkscape.org/namespaces/inkscape" xmlns:rdf="http://www.w3.org/1999/02/22-rdf-syntax-ns#" xmlns:sodipodi="http://sodipodi.sourceforge.net/DTD/sodipodi-0.dtd" xmlns:svg="http://www.w3.org/2000/svg"><path id="path4" d="m32.999958 7.0001217c-.552002 0-1.000003.4480014-1.000003 1.0000031v34.0001052c0 2.760009-2.240007 5.000016-5.000016 5.000016-2.760008 0-5.000015-2.240007-5.000015-5.000016 0-2.760008 2.240007-5.000015 5.000015-5.000015.552002 0 1.000003-.448002 1.000003-1.000003v-8.000025c0-.552002-.448001-1.000003-1.000003-1.000003-8.279025 0-15.000046 6.721021-15.000046 15.000046 0 8.279026 6.721021 15.000047 15.000046 15.000047 8.279026 0 15.000047-6.721021 15.000047-15.000047v-16.506051c2.136006.967003 4.505014 1.506005 7.000021 1.506005h2.000007c.552001 0 1.000003-.448002 1.000003-1.000003v-8.000025c0-.552002-.448002-1.000003-1.000003-1.000003h-2.000007c-3.863012 0-7.000021-3.13701-7.000021-7.000022v-2.0000062c0-.5520017-.448002-1.0000031-1.000003-1.0000031zm1.000003 2.0000062h6.000018v1.0000031c0 4.967015 4.033013 9.000028 9.000028 9.000028h1.000004v6.000018h-1.000004c-2.731008 0-5.292016-.731002-7.499023-2.009006-.309001-.179-.691002-.179-1.000003-.001-.310001.179001-.501002.509002-.501002.867003v18.143056c0 7.175022-5.825018 13.000041-13.00004 13.000041s-13.00004-5.825019-13.00004-13.000041c0-6.838021 5.292016-12.451038 12.000037-12.96204v6.033019c-3.39001.486001-6.000018 3.40501-6.000018 6.929021 0 3.863012 3.137009 7.000022 7.000021 7.000022s7.000022-3.13701 7.000022-7.000022z"/></svg>